# xmcd CD database file
#
# Track frame offsets:
#	150
#	20122
#	40602
#	60690
#	85117
#	103750
#	124857
#	152435
#	177265
#	196385
#	218007
#	240455
#
# Disc length: 3484 seconds
#
# Revision: 0
# Processed by: cddbd v1.5.2PL0 Copyright (c) Steve Scherf et al.
# Submitted via: CDex 1.70beta3
#
DISCID=980d9a0c
DTITLE=トニー・ガレロ - クール・グルーヴ～ベスト・オブ・エアー
DYEAR=1900
DGENRE=Jazz
TTITLE0=ＡＶＡＬＯＮ
TTITLE1=ＯＵＴ　ＯＦ　ＴＨＥ　ＢＬＵＥ
TTITLE2=ＰＯＲＴＵＧＵＥＳＥ　ＦＯＲ　ＴＲＡＶＥＬＥＲＳ
TTITLE3=ＹＯＵ’ＬＬ　ＫＮＯＷ ＩＴ’Ｓ　ＭＥ
TTITLE4=ＥＶＥＲＹＴＨＩＮＧ’Ｓ　ＡＬＲＩＧＨＴ
TTITLE5=ＵＰＴＯＷＮ
TTITLE6=ＤＥＬ　ＭＡＲ　ＲＵＮ
TTITLE7=ＩＴ’Ｓ　Ａ　ＧＯＯＤ　ＴＨＩＮＧ
TTITLE8=ＮＥＷ　ＳＨＯＥＳ
TTITLE9=ＴＨＥ　ＳＰＩＮ
TTITLE10=ＫＩＳＳ　ＯＦ　ＬＩＦＥ
TTITLE11=ＢＥＡＵＴＩＦＵＬ
EXTD=
EXTT0=
EXTT1=
EXTT2=
EXTT3=
EXTT4=
EXTT5=
EXTT6=
EXTT7=
EXTT8=
EXTT9=
EXTT10=
EXTT11=
PLAYORDER=
